<?xml version="1.0" standalone="no"?>
<!DOCTYPE svg PUBLIC "-//W3C//DTD SVG 20010904//EN"
 "http://www.w3.org/TR/2001/REC-SVG-20010904/DTD/svg10.dtd">
<svg version="1.0" xmlns="http://www.w3.org/2000/svg"
 width="500.000000pt" height="500.000000pt" viewBox="0 0 500.000000 500.000000"
 preserveAspectRatio="xMidYMid meet">
<metadata>
Created by potrace 1.11, written by Peter Selinger 2001-2013
</metadata>
<g transform="translate(0.000000,500.000000) scale(0.100000,-0.100000)"
fill="#000000" stroke="none">
<path d="M620 4599 c-32 -13 -78 -56 -96 -91 -12 -23 -14 -275 -14 -1666 l0
-1638 -215 -284 c-119 -155 -214 -284 -213 -286 2 -1 113 24 248 56 134 33
246 58 248 56 2 -3 -14 -14 -35 -26 l-38 -23 5 -107 c5 -98 7 -109 34 -144 16
-21 47 -47 70 -57 40 -18 108 -19 2011 -19 1890 0 1972 1 2010 19 46 20 91 69
103 109 4 15 7 446 7 957 l0 930 -23 32 c-12 17 -42 41 -65 52 -43 21 -45 21
-1445 21 -965 0 -1409 -3 -1429 -11 -35 -13 -79 -54 -101 -94 -14 -24 -17 -59
-17 -185 0 -166 6 -189 57 -237 59 -55 5 -53 1195 -53 1051 0 1100 -1 1139
-19 51 -23 89 -71 104 -131 8 -31 10 -146 8 -355 -3 -300 -4 -311 -26 -352
-12 -24 -41 -55 -64 -70 l-42 -28 -1405 0 c-1368 0 -1407 1 -1445 19 -23 12
-50 38 -67 65 l-29 45 0 412 0 411 -45 6 c-142 20 -249 143 -249 287 0 146
107 271 244 287 l50 6 2 712 3 712 29 37 c16 21 47 47 70 57 39 18 95 19 1431
19 1336 0 1392 -1 1431 -19 49 -22 88 -70 103 -126 7 -25 11 -163 11 -370 0
-324 1 -331 23 -370 14 -24 40 -50 67 -65 39 -22 60 -25 165 -29 156 -4 215 9
265 59 29 29 41 51 49 92 8 38 11 240 9 664 -3 545 -5 612 -20 639 -22 40 -66
81 -101 94 -38 15 -3971 14 -4007 0z"/>
<path d="M1030 2389 c-117 -35 -173 -165 -119 -277 67 -137 281 -137 348 0 74
153 -67 324 -229 277z"/>
</g>
</svg>
